<svg xmlns="http://www.w3.org/2000/svg" viewBox="0 0 510.95 511"><defs><style>.cls-1{fill:#1758d3;}</style></defs><title>home</title><g id="Layer_2" data-name="Layer 2"><g id="Layer_1-2" data-name="Layer 1"><path class="cls-1" d="M497.23,222.26l0,0L288.74,13.78a47,47,0,0,0-66.53,0L13.87,222.12l-.21.21A47,47,0,0,0,45,302.48c.48,0,1,.07,1.45.07h8.3v153.4A55.12,55.12,0,0,0,109.78,511h81.55a15,15,0,0,0,15-15V375.77a25.15,25.15,0,0,1,25.12-25.12h48.1a25.15,25.15,0,0,1,25.12,25.12V496a15,15,0,0,0,15,15h81.55a55.12,55.12,0,0,0,55.06-55.06V302.55h7.7a47.05,47.05,0,0,0,33.29-80.29ZM476,267.59a17,17,0,0,1-12.09,5H441.26a15,15,0,0,0-15,15V455.94a25.14,25.14,0,0,1-25.12,25.11H334.59V375.77a55.12,55.12,0,0,0-55.06-55.06h-48.1a55.13,55.13,0,0,0-55.06,55.06V481.06H109.78a25.15,25.15,0,0,1-25.12-25.11V287.58a15,15,0,0,0-15-15H47.41l-.7,0A17.08,17.08,0,0,1,34.93,243.4h0L243.39,35a17.09,17.09,0,0,1,24.18,0L476,243.34l.1.09A17.14,17.14,0,0,1,476,267.59Z"/></g></g></svg>