<svg xmlns="http://www.w3.org/2000/svg" viewBox="0 0 512.18 352.18"><defs><style>.cls-1{fill:#1758d3;}</style></defs><title>list</title><g id="Layer_2" data-name="Layer 2"><g id="Capa_1" data-name="Capa 1"><path class="cls-1" d="M448.18,0h-320a32,32,0,1,0,0,64h320a32,32,0,0,0,0-64Z"/><path class="cls-1" d="M64.18,32a32,32,0,0,0-64,0,27.24,27.24,0,0,0,0,6.24,28.85,28.85,0,0,0,1.76,6.08,37.14,37.14,0,0,0,3,5.44,29.27,29.27,0,0,0,4,5,28.32,28.32,0,0,0,4.8,3.84,26.07,26.07,0,0,0,5.44,3A26.41,26.41,0,0,0,25.94,64a28.06,28.06,0,0,0,6.24,0,32,32,0,0,0,22.56-9.28,29.27,29.27,0,0,0,4-5,37.14,37.14,0,0,0,3-5.44,29.71,29.71,0,0,0,2.4-6.08A27.24,27.24,0,0,0,64.18,32Z"/><path class="cls-1" d="M64.18,176a27.36,27.36,0,0,0,0-6.24,25.93,25.93,0,0,0-2.4-5.92,32,32,0,0,0-3-5.6,23,23,0,0,0-4-4.8A32,32,0,0,0,.18,176a31.92,31.92,0,0,0,5.28,17.76,30.73,30.73,0,0,0,4.16,4.8,23.36,23.36,0,0,0,4.8,4,26,26,0,0,0,5.44,3,27.21,27.21,0,0,0,6.08,1.76,26.56,26.56,0,0,0,6.24.64,27.24,27.24,0,0,0,6.24,0,26,26,0,0,0,5.92-1.76,26.72,26.72,0,0,0,5.6-3,23.36,23.36,0,0,0,4.8-4,23.36,23.36,0,0,0,4-4.8,25.73,25.73,0,0,0,3-5.44,27.07,27.07,0,0,0,2.4-6.72A26.47,26.47,0,0,0,64.18,176Z"/><path class="cls-1" d="M64.18,320a27.47,27.47,0,0,0,0-6.24,27.24,27.24,0,0,0-2.4-6.08,37.14,37.14,0,0,0-3-5.44,23.36,23.36,0,0,0-4-4.8,32,32,0,0,0-45.12,0,23.36,23.36,0,0,0-4,4.8,37.14,37.14,0,0,0-3,5.44,26.22,26.22,0,0,0-1.76,6.08A27.5,27.5,0,0,0,.18,320a32,32,0,0,0,9.44,22.56,23.36,23.36,0,0,0,4.8,4,26,26,0,0,0,5.44,3,27.21,27.21,0,0,0,6.08,1.76,26.56,26.56,0,0,0,6.24.64,27.24,27.24,0,0,0,6.24,0,26,26,0,0,0,5.92-1.76,26.72,26.72,0,0,0,5.6-3,23.36,23.36,0,0,0,4.8-4,23.36,23.36,0,0,0,4-4.8,25.62,25.62,0,0,0,3-5.44,27.16,27.16,0,0,0,2.4-6.72A26.47,26.47,0,0,0,64.18,320Z"/><path class="cls-1" d="M480.18,144h-352a32,32,0,1,0,0,64h352a32,32,0,1,0,0-64Z"/><path class="cls-1" d="M336.18,288h-208a32,32,0,1,0,0,64h208a32,32,0,1,0,0-64Z"/></g></g></svg>