<svg xmlns="http://www.w3.org/2000/svg" viewBox="0 0 309.15 159.25"><defs><style>.cls-1{fill:#395eab;}.cls-2{fill:#112d50;}</style></defs><title>logo</title><g id="Layer_2" data-name="Layer 2"><g id="Layer_1-2" data-name="Layer 1"><path class="cls-1" d="M90,51q-6.85,7-20,10.1Q77.06,63,80.71,67.41a15.35,15.35,0,0,1,3.65,10.1,23.32,23.32,0,0,1-5.65,15.64q-5.65,6.62-16.5,10.22T36.07,107q-5.71,0-9.13-.34a5.5,5.5,0,0,1-2.74,4.79,12.79,12.79,0,0,1-6.74,1.6q-4.11,0-5.65-1.83t-1.31-5.37a326.13,326.13,0,0,1,4-33.51A330.2,330.2,0,0,1,22,38.47a5.93,5.93,0,0,1,3.2-4,14.71,14.71,0,0,1,6.28-1.14q7,0,7,3.88a11.74,11.74,0,0,1-.68,3.65A201.06,201.06,0,0,0,31.85,65a289.09,289.09,0,0,0-4.22,29.05q5.48.46,8.9.46,16,0,23.46-4.62t7.48-11.82a10.44,10.44,0,0,0-4.28-8.45q-4.28-3.43-14.33-3.77a4.43,4.43,0,0,1-3.2-1.14,4.91,4.91,0,0,1-.91-3.31,9.51,9.51,0,0,1,1.37-5.37q1.37-2.06,5-2.17a51.21,51.21,0,0,0,14.67-2.4,24.71,24.71,0,0,0,10.33-6.11,12.88,12.88,0,0,0,3.77-9.19q0-6.62-6.51-10.44t-20-3.83A88.74,88.74,0,0,0,29.8,25.06,77.83,77.83,0,0,0,10.39,33a12.78,12.78,0,0,1-6.16,2.17,3.7,3.7,0,0,1-3.14-1.43A5.76,5.76,0,0,1,0,30.14a9.58,9.58,0,0,1,1.2-4.91Q2.4,23.17,7,20.55A84.91,84.91,0,0,1,29.45,12,113.08,113.08,0,0,1,55.82,8.9q20.66,0,30.82,7T96.81,34.25A23.12,23.12,0,0,1,90,51Z"/><path class="cls-2" d="M98.58,103.14a20.39,20.39,0,0,1-3.25-11.82,99.71,99.71,0,0,1,1.14-15.7,98.31,98.31,0,0,1,3.77-15.13,9.55,9.55,0,0,1,3.2-4.91q2.05-1.48,6.51-1.48a5.64,5.64,0,0,1,3.48.8,2.93,2.93,0,0,1,1,2.4,47.54,47.54,0,0,1-1.26,6.16q-1.14,4.22-1.83,7.65-2.29,12-2.28,16a7.1,7.1,0,0,0,.57,3.37,2,2,0,0,0,1.83,1q1.71,0,4.28-3.42a50.31,50.31,0,0,0,5.48-10.39,138.63,138.63,0,0,0,5.65-17.12,9,9,0,0,1,2.8-4.91,9,9,0,0,1,5.65-1.48,7.55,7.55,0,0,1,3.65.63,2.52,2.52,0,0,1,1,2.34q0,2.85-2.85,15.64-3.2,14.61-3.2,18a5.45,5.45,0,0,0,.91,3.37,2.87,2.87,0,0,0,2.4,1.2q2.28,0,5.42-2.8A91.66,91.66,0,0,0,151,83.45a4,4,0,0,1,3.08-1.6,2.64,2.64,0,0,1,2.34,1.37,7.08,7.08,0,0,1,.86,3.77q0,4.57-2.17,7.08A50.48,50.48,0,0,1,144.59,104a22.14,22.14,0,0,1-12.84,3.88q-5.48,0-8-4.22t-2.57-11.87q-1.94,7.77-5.82,11.93T107,107.88Q101.83,107.88,98.58,103.14Z"/><path class="cls-1" d="M215.25,83.22a7.08,7.08,0,0,1,.86,3.77q0,4.57-2.17,7.08a55.12,55.12,0,0,1-10.27,9.76q-5.6,4.05-11.07,4.05-8.68,0-13.24-10.16-4.79,6.05-8.39,8.11a16.62,16.62,0,0,1-8.39,2.05,14.52,14.52,0,0,1-11.47-5.19q-4.51-5.19-4.51-13.53a37.6,37.6,0,0,1,3.88-17,34.64,34.64,0,0,1,10.67-12.79,31,31,0,0,1,15.24-5.88q2.17-22.15,8.28-37.84t16-15.7a9.77,9.77,0,0,1,8.16,4.45q3.25,4.45,3.25,13.47,0,12.79-6.28,29.91A222.26,222.26,0,0,1,189,83q.45,6.62,2,9.48T195,95.32a9.76,9.76,0,0,0,6.28-2.74,83.45,83.45,0,0,0,8.56-9.13,4,4,0,0,1,3.08-1.6A2.64,2.64,0,0,1,215.25,83.22ZM170.9,94.58A33.52,33.52,0,0,0,176.38,88a76.22,76.22,0,0,1-1.14-13.81q0-2.74.23-8.9A19.13,19.13,0,0,0,165,73.69,25.84,25.84,0,0,0,160.85,88q0,8.33,5.71,8.33A6.87,6.87,0,0,0,170.9,94.58Zm24.2-75.69A140.57,140.57,0,0,0,191.39,39q-1.54,12.44-2.23,26,12.78-27.85,12.79-44.75a23.88,23.88,0,0,0-.74-6.74q-.74-2.4-1.77-2.4Q197.27,11.19,195.1,18.89Z"/><path class="cls-2" d="M272.9,83.22a7.08,7.08,0,0,1,.86,3.77q0,4.57-2.17,7.08a55.12,55.12,0,0,1-10.27,9.76q-5.6,4.05-11.07,4.05-8.68,0-13.24-10.16-4.79,6.05-8.39,8.11a16.62,16.62,0,0,1-8.39,2.05,14.52,14.52,0,0,1-11.47-5.19q-4.51-5.19-4.51-13.53a37.6,37.6,0,0,1,3.88-17,34.64,34.64,0,0,1,10.67-12.79A31,31,0,0,1,234,53.54q2.17-22.15,8.28-37.84t16-15.7a9.77,9.77,0,0,1,8.16,4.45q3.25,4.45,3.25,13.47,0,12.79-6.28,29.91A222.26,222.26,0,0,1,246.7,83q.45,6.62,2,9.48t3.94,2.85a9.76,9.76,0,0,0,6.28-2.74,83.45,83.45,0,0,0,8.56-9.13,4,4,0,0,1,3.08-1.6A2.64,2.64,0,0,1,272.9,83.22ZM228.55,94.58A33.52,33.52,0,0,0,234,88a76.22,76.22,0,0,1-1.14-13.81q0-2.74.23-8.9a19.13,19.13,0,0,0-10.45,8.39A25.84,25.84,0,0,0,218.5,88q0,8.33,5.71,8.33A6.87,6.87,0,0,0,228.55,94.58Zm24.2-75.69A140.57,140.57,0,0,0,249,39q-1.54,12.44-2.23,26Q259.6,37.22,259.6,20.32a23.88,23.88,0,0,0-.74-6.74q-.74-2.4-1.77-2.4Q254.92,11.19,252.75,18.89Z"/><path class="cls-1" d="M308.12,54.8a2.54,2.54,0,0,1,1,2.28q0,2.74-3,19.52-2.63,16.1-3.08,19.07-4.23,29.34-11.64,46.46T271.7,159.25a12.93,12.93,0,0,1-9.47-3.6,12.63,12.63,0,0,1-3.65-9.42,27.13,27.13,0,0,1,2.45-11q2.45-5.6,9.13-12.84a151,151,0,0,1,18.89-16.61l.34-2.63q.8-4.22,1.83-12.1-2.29,8.22-6.39,12.5t-8.68,4.28q-5.14,0-8.39-4.74a20.39,20.39,0,0,1-3.25-11.82,99.71,99.71,0,0,1,1.14-15.7,98.31,98.31,0,0,1,3.77-15.13,9.55,9.55,0,0,1,3.2-4.91q2.05-1.48,6.51-1.48a5.64,5.64,0,0,1,3.48.8,2.93,2.93,0,0,1,1,2.4,47.54,47.54,0,0,1-1.26,6.16q-1.14,4.22-1.83,7.65-.91,4.68-1.6,9a46.32,46.32,0,0,0-.68,7q0,4.34,2.4,4.34,1.71,0,4.28-3.42a50.31,50.31,0,0,0,5.48-10.39A138.63,138.63,0,0,0,296,60.5a9,9,0,0,1,2.8-4.91,9,9,0,0,1,5.65-1.48A7,7,0,0,1,308.12,54.8Zm-28.77,86.76q3.54-6.62,7.08-22-8.79,7.42-12.73,13.53t-3.94,10.67a6.2,6.2,0,0,0,.74,3.2,2.63,2.63,0,0,0,2.45,1.26Q275.81,148.18,279.35,141.56Z"/></g></g></svg>