<svg xmlns="http://www.w3.org/2000/svg" viewBox="0 0 345.76 499.11"><defs><style>.cls-1{fill:none;stroke:#1758d3;stroke-miterlimit:10;stroke-width:20px;}</style></defs><title>profile_1</title><g id="Layer_2" data-name="Layer 2"><g id="Capa_1" data-name="Capa 1"><g id="Layer_2-2" data-name="Layer 2"><g id="Capa_1-2" data-name="Capa 1"><path class="cls-1" d="M172.9,259C229.5,259,275.4,203.27,275.4,134.5S260.34,10,172.9,10,70.39,65.75,70.39,134.52,116.29,259,172.9,259Z"/><path class="cls-1" d="M335.57,426C334,325.18,320.8,296.47,220.09,278.28c0,0-14.17,18.07-47.22,18.07s-47.23-18.07-47.23-18.07C26,296.26,12.08,324.56,10.24,422.68c-.15,8-.22,8.43-.24,7.5v10.59s24,48.35,162.88,48.35,162.88-48.35,162.88-48.35v-7.83C335.75,433.52,335.7,432.4,335.57,426Z"/></g></g></g></g></svg>